HIERARCHY
ROOT pelvis
{
  OFFSET 0 100 0
  CHANNELS 6 Xposition Yposition Zposition Zrotation Xrotation Yrotation
  JOINT pelvis_right_femur
  {
    OFFSET -10.78128 -3.44521 -0.5502486
    CHANNELS 3 Zrotation Xrotation Yrotation
    JOINT right_femur_tibia
    {
      OFFSET -0.8047443 -44.0398 -0.1307829
      CHANNELS 3 Zrotation Xrotation Yrotation
      JOINT right_tibia_foot
      {
        OFFSET 3.006224 -47.83518 -5
        CHANNELS 3 Zrotation Xrotation Yrotation
        End Site
        {
          OFFSET 0 -5 15
        }
      }
    }
  }
  JOINT pelvis_left_femur
  {
    OFFSET 10.78128 -3.44521 -0.5502486
    CHANNELS 3 Zrotation Xrotation Yrotation
    JOINT left_femur_tibia
    {
      OFFSET 0.8047443 -44.0398 -0.1307829
      CHANNELS 3 Zrotation Xrotation Yrotation
      JOINT left_tibia_foot
      {
        OFFSET -4.370144 -48.10324 -4.275266
        CHANNELS 3 Zrotation Xrotation Yrotation
        End Site
        {
          OFFSET 0 -5 15
        }
      }
    }
  }
  JOINT pelvis_spine1
  {
    OFFSET 0 6.468898 -3.129235
    CHANNELS 3 Zrotation Xrotation Yrotation
    JOINT spine1
    {
      OFFSET 0 23.15396 4.99043
      CHANNELS 3 Zrotation Xrotation Yrotation
      JOINT spine2
      {
        OFFSET 0 20.79997 -5.064912
        CHANNELS 3 Zrotation Xrotation Yrotation
        JOINT neck
        {
          OFFSET 0 14.38658 9.616178
          CHANNELS 3 Zrotation Xrotation Yrotation
          End Site
          {
            OFFSET 0 20 0
          }
        }
      }
      JOINT right_manubrium
      {
        OFFSET -5.722621 16.35077 3.967754
        CHANNELS 3 Zrotation Xrotation Yrotation
        JOINT right_clavicle
        {
          OFFSET -13.16364 1.694482 -4.693211
          CHANNELS 3 Zrotation Xrotation Yrotation
          JOINT right_humerus
          {
            OFFSET -28.5034 -0.3100689 -2.792744
            CHANNELS 3 Zrotation Xrotation Yrotation
            JOINT right_radius
            {
              OFFSET -25.15693 0.02248979 -1.271978
              CHANNELS 3 Zrotation Xrotation Yrotation
              End Site
              {
                OFFSET -15 0 0
              }
            }
          }
        }
      }
      JOINT left_manubrium
      {
        OFFSET 5.722621 16.35077 3.967754
        CHANNELS 3 Zrotation Xrotation Yrotation
        JOINT left_clavicle
        {
          OFFSET 13.16364 1.694482 -4.693211
          CHANNELS 3 Zrotation Xrotation Yrotation
          JOINT left_humerus
          {
            OFFSET 29.39168 -1.063119 -2.237045
            CHANNELS 3 Zrotation Xrotation Yrotation
            JOINT left_radius
            {
              OFFSET 24.59957 -0.9528479 0.9047498
              CHANNELS 3 Zrotation Xrotation Yrotation
              End Site
              {
                OFFSET 15 -0 -0
              }
            }
          }
        }
      }
    }
  }
}
MOTION
Frames: 9
Frame Time: 0.0416666666667
1664.36 99.11528 2465.151 4.943499 -1.471611 58.19684 0.8502761 19.28338 4.052462 -0 24.4125 -0 1.55743 -12.2263 -1.568231 -0.5797148 -25.16436 -4.41801 -0 18.53424 -0 -5.122902 -7.232954 19.14635 -2.149061 -0.3469652 8.559992 -0.8450733 9.016325 -3.042534 1.870749 21.9387 5.305399 2.18157 -17.93479 6.733914 1.425579 -21.57388 10.77882 79.2485 25.90774 -4.11385 -0 0 23.62571 -25.57329 10.5686 15.17421 3.724419 -14.76656 -2.175182 -93.13597 23.36247 26.23278 0 0 -9.766544 -1.736455 5.687536 16.37166
1671.118 99.13934 2467.851 5.580914 -1.121031 58.28298 -0.2977456 18.29513 4.347879 -0 32.1862 -0 1.819892 -7.885499 -2.272614 -2.346291 -22.3044 -5.53947 -0 20.24229 -0 -4.308871 -8.03312 18.93557 -2.973652 -0.8880349 8.550879 -1.046913 9.367826 -3.179709 2.00948 21.91614 5.334942 2.320064 -17.96431 6.83054 1.76146 -21.04199 10.66952 80.29063 26.16328 -5.376237 -0 0 22.45694 -25.82816 10.77596 14.93061 3.396668 -14.93615 -2.40087 -92.59589 23.51058 25.9465 0 0 -9.768988 -1.788548 5.755003 16.63516
1677.831 99.78821 2470.502 6.429276 -1.06168 58.75118 -0.9609998 15.26505 4.60857 -0 41.14803 -0 1.986359 -3.072271 -3.418175 -3.952542 -18.24486 -6.569622 -0 22.30358 -0 -3.576065 -9.235925 18.67762 -3.611639 -1.042267 8.172563 -1.225954 9.861908 -3.434562 2.14159 21.95434 5.392204 2.40922 -17.82985 6.988858 2.243946 -20.3077 10.66725 81.71115 26.40694 -7.010801 -0 0 20.93545 -25.74168 11.26243 14.44138 3.126354 -15.30588 -2.82269 -91.77655 23.72143 25.02858 0 0 -10.06622 -1.701921 5.950763 16.7783
1684.276 100.939 2473.013 7.14241 -1.278844 59.61043 -0.982304 10.2625 4.675925 -0 49.49385 -0 2.043004 1.115559 -4.769677 -5.075532 -13.35831 -7.31047 -0 23.27785 -0 -3.029738 -10.69962 18.25045 -3.897238 -0.7702419 7.358 -1.246894 10.36484 -3.895944 2.156992 22.01091 5.545029 2.379872 -17.69006 7.221721 2.763543 -19.51349 10.75886 83.3002 26.67905 -8.803128 -0 0 19.25989 -25.3387 11.90482 13.95508 2.960112 -15.84534 -3.337423 -90.67732 23.93098 23.46677 0 0 -10.74687 -1.452847 6.149502 16.74078
1690.299 102.2997 2475.321 7.482301 -1.666206 60.77496 -0.4846933 3.851597 4.494584 -0 55.04197 -0 1.88216 3.599606 -6.056303 -5.603847 -8.046941 -7.684131 -0 22.36885 -0 -2.706185 -12.24135 17.55672 -3.804693 -0.2011564 6.162757 -0.9930273 10.73023 -4.628355 1.993639 22.07831 5.802175 2.200078 -17.6385 7.495897 3.157973 -18.74373 10.88646 84.8768 26.96367 -10.66967 -0 0 17.52251 -24.70676 12.48724 13.64186 2.931382 -16.55879 -3.836843 -89.25524 24.07493 21.18345 0 0 -11.99944 -1.053393 6.249374 16.43273
1695.871 103.494 2477.43 7.444173 -2.060947 62.0878 0.1733094 -3.022086 4.076286 -0 56.04551 -0 1.436911 3.7187 -7.095526 -5.659023 -2.664102 -7.747032 -0 19.76625 -0 -2.599611 -13.74753 16.58983 -3.476685 0.4162689 4.793158 -0.4551812 10.83042 -5.591848 1.698522 22.19069 6.081626 1.889455 -17.61933 7.749341 3.25325 -17.99929 10.94954 86.33732 27.10883 -12.63289 -0 0 15.76007 -23.94767 12.79922 13.47084 3.068162 -17.44607 -4.250094 -87.50335 24.13928 18.13514 0 0 -14.00036 -0.5881227 6.24747 15.82055
1701.083 104.1937 2479.422 7.205948 -2.277205 63.38038 0.5772948 -9.404079 3.429326 -0 52.04934 -0 0.7917466 1.66562 -7.865513 -5.515966 2.495787 -7.670172 -0 16.47507 -0 -2.699271 -15.24563 15.46391 -3.16308 0.8489804 3.54989 0.2285412 10.60097 -6.610392 1.419128 22.38331 6.262365 1.534863 -17.48523 7.934787 2.970507 -17.21402 10.84813 87.63826 26.96094 -14.71009 -0 0 14.00728 -23.1349 12.76813 13.23219 3.40661 -18.46348 -4.547322 -85.53047 24.17066 14.45855 0 0 -16.75478 -0.1665442 6.262756 14.96904
1706.103 104.2321 2481.418 6.944857 -2.18597 64.53436 0.5058548 -14.74016 2.577821 -0 44.24021 -0 0.1237122 -1.426742 -8.434301 -5.42497 7.173841 -7.642031 -0 13.68968 -0 -3.006007 -16.81785 14.36291 -3.057189 1.003364 2.674559 0.842594 10.09705 -7.455987 1.305828 22.62986 6.27884 1.273987 -17.15594 8.037472 2.412906 -16.3318 10.56003 88.7619 26.55541 -16.82897 -0 0 12.32392 -22.31654 12.51018 12.71535 3.971367 -19.52911 -4.731617 -83.5646 24.22788 10.55027 0 0 -20.0103 0.1644953 6.447297 14.01972
1711.115 103.6365 2483.522 6.702062 -1.807699 65.50796 0.07844025 -18.9698 1.645321 -0 34.86511 -0 -0.4374715 -4.102101 -8.851155 -5.458432 11.17453 -7.75415 -0 12.19107 -0 -3.512538 -18.41415 13.43518 -3.161097 0.9300009 2.214141 1.235993 9.482305 -7.99378 1.409031 22.83615 6.157906 1.21471 -16.71458 8.063166 1.817904 -15.37746 10.17033 89.70138 26.11639 -18.84119 -0 0 10.78221 -21.53563 12.2506 11.88466 4.71779 -20.54762 -4.826806 -81.85978 24.32633 6.956831 0 0 -23.31508 0.4450113 6.868386 13.1227
